<?xml version="1.0" standalone="no"?>
<!DOCTYPE svg PUBLIC "-//W3C//DTD SVG 20010904//EN"
 "http://www.w3.org/TR/2001/REC-SVG-20010904/DTD/svg10.dtd">
<svg version="1.0" xmlns="http://www.w3.org/2000/svg"
 width="981.000000pt" height="626.000000pt" viewBox="0 0 981.000000 626.000000"
 preserveAspectRatio="xMidYMid meet">

<g transform="translate(0.000000,626.000000) scale(0.100000,-0.100000)"
fill="#000000" stroke="none">
<path d="M696 6239 c-248 -8 -261 -9 -310 -33 -112 -55 -275 -220 -331 -334
-26 -52 -27 -63 -37 -340 -15 -387 -15 -4399 -1 -4796 l11 -289 36 -71 c68
-138 174 -243 329 -327 l79 -42 1636 7 c901 4 1684 11 1742 16 89 8 116 15
176 44 139 69 284 236 312 361 21 98 31 1088 31 3320 l1 2040 -41 75 c-83 152
-189 259 -324 326 l-70 34 -265 10 c-311 11 -2598 10 -2974 -1z m3201 -461
l63 -62 0 -2585 0 -2585 -62 -63 -62 -63 -1645 0 -1645 0 -63 62 -63 62 0
2585 0 2585 62 63 62 63 1645 0 1645 0 63 -62z"/>
<path d="M840 4590 l0 -210 1250 0 1250 0 0 210 0 210 -1250 0 -1250 0 0 -210z"/>
<path d="M840 3130 l0 -210 1250 0 1250 0 0 210 0 210 -1250 0 -1250 0 0 -210z"/>
<path d="M840 1670 l0 -210 1250 0 1250 0 0 210 0 210 -1250 0 -1250 0 0 -210z"/>
<path d="M6116 6239 c-248 -8 -261 -9 -310 -33 -111 -54 -275 -220 -330 -332
-41 -84 -47 -195 -53 -1086 l-6 -828 212 0 211 0 0 876 0 877 63 63 62 64
1645 0 1646 0 62 -63 62 -63 0 -2585 0 -2585 -63 -62 -63 -62 -1645 0 -1645 0
-62 63 -62 63 0 667 0 667 -211 0 -212 0 6 -632 c4 -348 11 -671 17 -718 7
-54 21 -107 39 -145 62 -131 187 -261 306 -317 111 -52 136 -52 1885 -53 1490
0 1609 1 1667 17 181 50 313 171 413 376 l50 102 0 2620 0 2620 -50 103 c-81
166 -191 281 -334 348 -62 29 -65 29 -327 39 -310 11 -2596 10 -2973 -1z"/>
<path d="M6490 4380 l0 -210 1120 0 1120 0 0 210 0 210 -1120 0 -1120 0 0
-210z"/>
<path d="M5839 3556 l-137 -141 105 -110 c114 -119 140 -152 129 -163 -4 -4
-327 -9 -717 -11 l-709 -3 0 -194 0 -194 708 -2 707 -3 -139 -142 -138 -142
128 -135 c71 -75 135 -136 143 -136 26 0 784 676 814 727 5 9 2 24 -8 40 -20
31 -735 753 -744 752 -3 -1 -67 -65 -142 -143z"/>
</g>
</svg>
