<svg width="53" height="53" viewBox="0 0 53 53" fill="none" xmlns="http://www.w3.org/2000/svg">
<g id="feather:upload-cloud">
<g id="Group">
<path id="Vector" d="M35.3337 35.3334L26.5003 26.5001L17.667 35.3334" stroke="#5569DD" stroke-width="3" stroke-linecap="round" stroke-linejoin="round"/>
<path id="Vector_2" d="M26.5 26.5001V46.3751" stroke="#5569DD" stroke-width="3" stroke-linecap="round" stroke-linejoin="round"/>
<path id="Vector_3" d="M45.0281 40.6113C47.182 39.4371 48.8835 37.579 49.8641 35.3304C50.8447 33.0817 51.0485 30.5705 50.4434 28.1932C49.8383 25.8158 48.4587 23.7077 46.5224 22.2014C44.5861 20.6952 42.2034 19.8767 39.7502 19.8751H36.9677C36.2993 17.2896 35.0534 14.8894 33.3238 12.8548C31.5943 10.8201 29.4259 9.20407 26.9818 8.12807C24.5378 7.05208 21.8816 6.54415 19.213 6.64247C16.5444 6.7408 13.9327 7.44281 11.5745 8.69574C9.21622 9.94868 7.17269 11.7199 5.59751 13.8763C4.02233 16.0327 2.95649 18.5181 2.48013 21.1457C2.00377 23.7733 2.12928 26.4747 2.84723 29.0469C3.56518 31.619 4.85688 33.9949 6.62522 35.9959" stroke="#5569DD" stroke-width="3" stroke-linecap="round" stroke-linejoin="round"/>
<path id="Vector_4" d="M35.3337 35.3334L26.5003 26.5001L17.667 35.3334" stroke="#5569DD" stroke-width="3" stroke-linecap="round" stroke-linejoin="round"/>
</g>
</g>
</svg>
