<svg width="50" height="50" viewBox="0 0 50 50" fill="none" xmlns="http://www.w3.org/2000/svg">
<rect x="2" y="2" width="46" height="46" rx="23" fill="#5569DD"/>
<rect x="2" y="2" width="46" height="46" rx="23" stroke="white" stroke-width="4"/>
<path d="M24.3716 22.076C24.3716 23.052 24.1476 23.948 23.6996 24.764C23.2516 25.564 22.5636 26.212 21.6356 26.708C20.7076 27.204 19.5556 27.452 18.1796 27.452H15.6356V33.5H11.5316V16.652H18.1796C19.5236 16.652 20.6596 16.884 21.5876 17.348C22.5156 17.812 23.2116 18.452 23.6756 19.268C24.1396 20.084 24.3716 21.02 24.3716 22.076ZM17.8676 24.188C18.6516 24.188 19.2356 24.004 19.6196 23.636C20.0036 23.268 20.1956 22.748 20.1956 22.076C20.1956 21.404 20.0036 20.884 19.6196 20.516C19.2356 20.148 18.6516 19.964 17.8676 19.964H15.6356V24.188H17.8676ZM34.3802 33.5L30.8762 27.14H29.8922V33.5H25.7882V16.652H32.6762C34.0042 16.652 35.1322 16.884 36.0602 17.348C37.0042 17.812 37.7082 18.452 38.1722 19.268C38.6362 20.068 38.8682 20.964 38.8682 21.956C38.8682 23.076 38.5482 24.076 37.9082 24.956C37.2842 25.836 36.3562 26.46 35.1242 26.828L39.0122 33.5H34.3802ZM29.8922 24.236H32.4362C33.1882 24.236 33.7482 24.052 34.1162 23.684C34.5002 23.316 34.6922 22.796 34.6922 22.124C34.6922 21.484 34.5002 20.98 34.1162 20.612C33.7482 20.244 33.1882 20.06 32.4362 20.06H29.8922V24.236Z" fill="white"/>
</svg>
